# xmcd
#
# Track frame offsets: 
#        150
#        15511
#        33775
#        48430
#        66360
#        81518
#        96507
#        116599
#        133849
#        151005
#        171081
#        185128
#        199525
#        216100
#
# Disc length: 3053 seconds
#
# Revision: 5
# Processed by: cddbd v1.5.2PL0 Copyright (c) Steve Scherf et al.
# Submitted via: ExactAudioCopy v1.0b3
#
DISCID=c10beb0e
DTITLE=Rimes, LeAnn - Remnants
DYEAR=2016
DGENRE=Pop
TTITLE0=The Story
TTITLE1=Love Line
TTITLE2=Outrageous Love
TTITLE3=Mother
TTITLE4=Remnants
TTITLE5=Long Live Love
TTITLE6=How To Kiss A Boy
TTITLE7=Love Is Love Is Love
TTITLE8=Learning Your Language
TTITLE9=I Couldn't Do That To Me
TTITLE10=Humbled
TTITLE11=Do It Wrong With Me
TTITLE12=Dang Dang
TTITLE13=Give Me Something (I Can't Give Myself)
EXTD=YEAR: 2016
EXTT0=
EXTT1=
EXTT2=
EXTT3=
EXTT4=
EXTT5=
EXTT6=
EXTT7=
EXTT8=
EXTT9=
EXTT10=
EXTT11=
EXTT12=
EXTT13=
PLAYORDER=
